<svg version="1" xmlns="http://www.w3.org/2000/svg" width="1365.333" height="1365.333" viewBox="0 0 1024.000000 1024.000000"><path d="M456.5 17.6c-22.5 6.3-57.2 15.9-77 21.4-19.8 5.4-63 17.3-96 26.5-33 9.1-73.9 20.4-91 25.1-17 4.8-35.5 9.9-41 11.4-5.4 1.5-10.1 3.2-10.3 3.8-.3 1 2.5 30.9 18.8 203.7 4.4 46.7 11.4 120.5 15.5 164 4.1 43.4 10.4 110 14 148 3.6 37.9 9.6 102.2 13.4 142.9 3.9 40.6 7.1 74 7.3 74.1.2.2 33.1-13.3 73.3-30.1 40.1-16.7 73.5-30.4 74.2-30.4.7 0 1.3.3 1.3.7-.2 3 14.4 154.9 14.9 155.4.3.4 35.9-14.1 79.1-32.1l78.5-32.8.7 2.6c.4 1.5 3.5 32.4 6.8 68.7 3.3 36.3 6.4 67.9 6.8 70.2l.7 4.1 173-72c95.2-39.7 173.1-72.1 173.1-72.2.1-.1-.4-7.3-1.2-16.1-.7-8.8-6.3-75.4-12.4-148-6.1-72.6-13.3-158.6-16-191-2.7-32.5-9.9-118.4-16-191-6-72.6-11.3-134.4-11.6-137.3-.5-4.2-1-5.2-2.3-4.8-.9.3-20.3 5.7-43.1 12s-57.9 16-78 21.5c-20.1 5.6-37 10.1-37.6 10.1-1.5 0-1.5-.4-7-66.5-2.6-31.4-4.8-57.1-4.9-57.2-.1-.2-7.5 1.8-16.6 4.3-68.5 18.9-131.7 36.3-133.4 36.6-1.8.3-2.1-2.3-7.6-67.2-3.2-37.1-5.8-68.1-5.8-68.8-.1-.6-.4-1.2-.8-1.1-.5 0-19.2 5.2-41.8 11.5zM485 29.2c0 1.3 2.3 28.4 5 60.3s4.6 58.3 4.2 58.6c-.4.3-16.4 5-35.7 10.3-132.1 36.4-153.6 42.4-153.9 42.7-.2.2 2 25.6 5 56.4 5.2 54.6 8.9 94.4 25.4 269 4.4 46.7 11.2 118.5 15.1 159.4 3.8 40.9 6.9 74.4 6.7 74.6-.9.7-132.4 55.2-132.6 55-.3-.3-3.4-32.2-17.6-183-4.2-44-11.2-118.3-15.6-165-4.4-46.8-10.5-111.1-13.5-143-3-31.9-8.7-91.5-12.5-132.4-3.9-41-6.7-74.8-6.3-75.2.4-.3 15.9-4.8 34.3-9.8 18.4-5.1 45.4-12.5 60-16.6 14.6-4 47-13 72-19.9 25-6.9 70.5-19.5 101-28s56.3-15.5 57.3-15.5c1.1-.1 1.7.6 1.7 2.1zm163.4 96c.8 3.9 8.8 103.7 8.4 104.9-.2.6-8.9 3.5-19.3 6.4-32.9 9.1-149.8 41.4-154.9 42.7-2.7.7-5 1.8-5.3 2.4-.4 1.1 2.1 27.9 18.7 203.9 14.5 152.8 33.4 353.7 34.2 363.9l.3 2.9-71.3 29.7c-42.9 17.9-71.5 29.3-71.7 28.6-.2-.6-3.1-30.4-6.5-66.1-6.1-65.4-17.4-185.4-29.5-313-9.8-103.6-19.9-210.9-25.2-267.3-2.9-31.5-4.3-50.5-3.7-51.1.5-.5 45-13.1 98.9-28 53.9-14.9 126.4-34.9 161-44.5 34.7-9.6 63.6-17.5 64.2-17.5.7-.1 1.5.9 1.7 2.1zM821 204.7c0 1 2.2 28.3 5 60.8 2.7 32.4 9 107.4 14 166.5 22.5 269.1 29.3 350.2 32.5 387.5 2.7 32.1 3.1 40.2 2.1 40.9-1.7 1.2-314 131.4-314.4 131.1-.3-.3-3.4-32.1-17.6-183-4.2-44-11.2-118.3-15.6-165-4.4-46.8-10.5-111.1-13.5-143-3-31.9-8.7-91.5-12.5-132.4-3.9-41-6.7-74.8-6.3-75.2.4-.3 9.1-2.9 19.3-5.7 10.2-2.8 37.2-10.2 60-16.5 22.8-6.4 76.8-21.3 120-33.2 43.2-12 88.6-24.6 101-28 12.4-3.5 23.3-6.3 24.3-6.4 1-.1 1.7.6 1.7 1.6z"/></svg>